# xmcd
#
# Track frame offsets:
#	150
#	22532
#	62382
#	84192
#	119760
#	142155
#	158245
#	204820
#	226195
#	252460
#	283140
#
# Disc length: 4081 seconds
#
# Revision: 1
# Processed by: cddbd v1.5.2PL0 Copyright (c) Steve Scherf et al.
# Submitted via: EZCDAudioConverter 2.5.0.1
#
DISCID=8c0fef0b
DTITLE=Hook's Combo - The Blues Is All Around Me
DYEAR=1995
DGENRE=Blues
TTITLE0=Leftovers
TTITLE1=Rock Me Baby
TTITLE2=Worried About My Baby
TTITLE3=The Jump
TTITLE4=Every Day I Have The Blues
TTITLE5=Mary Had A Little Lamb
TTITLE6=The Blues Is All Around Me
TTITLE7=Don't Lose Your Cool
TTITLE8=Can't Keep Me Away
TTITLE9=Ramblin' On My Mind
TTITLE10=Drivin' Wheel
EXTD=
EXTT0=
EXTT1=
EXTT2=
EXTT3=
EXTT4=
EXTT5=
EXTT6=
EXTT7=
EXTT8=
EXTT9=
EXTT10=
PLAYORDER=
